<svg width="350" height="309" viewBox="0 0 350 309" fill="none" xmlns="http://www.w3.org/2000/svg">
<path opacity="0.2" d="M6.41913 -84.8619L51.2936 -49.2527L87.0947 -94.0876L64.5599 -111.628L46.5413 -89.1345L2.00056 -125.16M376.176 186.293L242.372 78.8689L224.188 101.001L313.617 172.761L259.644 239.853L237.082 222.062L273.383 177.173L49.9847 -2.37352L152.451 -130.004M345.232 -95.9206L273.478 -6.4873L206.041 -59.8874L224.532 -82.6863L269.184 -46.7993L304.999 -91.5091L243.664 -140.005M229.457 -134.648L130.451 -11.1964L175.103 24.6905L157.099 47.3094L89.7869 -6.10439L192.06 -134.347M353.958 -15.185L282.106 74.5123L304.779 92.1643L322.41 69.5866L367.214 105.71M349.651 -55.6222L277.674 34.0888L188.592 -37.9627L170.685 -15.6078L237.565 38.4865L201.764 83.3215L179.536 65.114L197.332 42.898M380.47 226.605L335.706 190.857L263.687 281.333L107.338 153.963L143.721 109.824L233.025 181.598M385.013 266.89L340.125 231.155L304.199 276.004L326.872 293.656L344.766 271.176L389.432 307.188M327.105 110.108L371.632 146.008" stroke="#5D60BA" stroke-width="3" stroke-miterlimit="10" stroke-linecap="round" stroke-linejoin="round"/>
</svg>
