<svg width="1270" height="248" viewBox="0 0 1270 248" fill="none" xmlns="http://www.w3.org/2000/svg">
<path opacity="0.6" fill-rule="evenodd" clip-rule="evenodd" d="M2.76075 274.329C27.5311 386.4 102.527 470.392 289.256 421.053C443.939 380.184 553.137 310.979 645.453 252.431C814.451 145.309 927.129 73.8497 1158.17 275.87C1248.43 354.785 1328.44 389.666 1397.68 396.904C1418.42 399.085 1438.2 398.765 1457 396.411L1457.92 398.832C1438.77 401.29 1418.6 401.633 1397.43 399.409C1327.71 392.11 1247.21 357.054 1156.53 277.754C926.901 76.9769 814.847 148.019 646.806 254.567C554.342 313.201 444.953 382.538 289.909 423.485C100.906 473.416 25.1575 388.475 0.234279 275.288L2.76075 274.329ZM5.41881 273.319C33.2244 378.397 109.545 453.667 288.616 406.364C443.298 365.494 552.496 296.289 644.813 237.742C813.81 130.62 926.488 59.1602 1157.53 261.18C1247.79 340.096 1327.8 374.976 1397.04 382.215C1416.05 384.208 1434.26 384.097 1451.63 382.256L1452.55 384.677C1434.81 386.595 1416.22 386.731 1396.78 384.693C1327.07 377.42 1246.56 342.338 1155.88 263.039C926.25 62.2611 814.197 133.303 646.156 239.851C553.691 298.485 444.303 367.822 289.258 408.769C107.95 456.681 30.9035 380.452 2.89234 274.279L5.41881 273.319ZM8.62954 272.099C39.3641 369.983 116.616 436.921 287.949 391.684C442.631 350.815 551.819 281.584 644.145 223.062C813.143 115.941 925.821 44.4808 1156.86 246.501C1247.12 325.417 1327.13 360.297 1396.38 367.535C1413.66 369.342 1430.27 369.412 1446.22 368.022L1447.15 370.469C1430.84 371.936 1413.83 371.864 1396.15 370.03C1326.43 362.731 1245.93 327.675 1155.25 248.376C925.62 47.598 813.566 118.64 645.525 225.188C553.024 283.805 443.636 353.143 288.591 394.089C115.083 439.942 37.0532 372.065 6.12938 273.049L8.62954 272.099ZM12.4982 270.63C45.9602 361.185 123.802 420.162 287.298 376.968C441.98 336.099 551.178 266.894 643.495 208.347C812.492 101.225 925.17 29.7651 1156.21 231.785C1246.47 310.701 1326.48 345.581 1395.73 352.82C1411.28 354.439 1426.3 354.664 1440.77 353.683L1441.7 356.13C1426.87 357.189 1411.45 356.962 1395.46 355.298C1325.76 348.025 1245.25 312.943 1154.57 233.643C924.933 32.8659 812.879 103.908 644.828 210.429C552.363 269.063 442.975 338.401 287.93 379.347C122.269 423.183 43.6229 363.277 9.94541 271.6L12.4982 270.63ZM17.0511 268.901C53.0917 351.974 131.093 403.363 286.631 362.289C441.287 321.429 550.501 252.188 642.828 193.667C811.825 86.5453 924.503 15.0856 1155.54 217.106C1245.8 296.021 1325.82 330.902 1395.06 338.14C1408.89 339.599 1422.32 339.917 1435.31 339.291L1436.25 341.764C1422.89 342.441 1409.07 342.122 1394.83 340.635C1325.12 333.362 1244.61 298.28 1153.93 218.98C924.302 18.2028 812.248 89.2447 644.197 195.766C551.733 254.4 442.344 323.737 287.3 364.684C129.56 406.384 50.7118 354.112 14.4457 269.89L17.0511 268.901ZM22.3409 266.891C60.7421 342.384 138.499 386.55 285.99 347.6C440.672 306.73 549.86 237.499 642.187 178.978C811.184 71.8559 923.862 0.396133 1154.9 202.416C1245.16 281.332 1325.18 316.212 1394.42 323.451C1406.55 324.713 1418.34 325.143 1429.8 324.794L1430.74 327.267C1418.91 327.667 1406.7 327.245 1394.15 325.929C1324.44 318.63 1243.94 283.574 1153.26 204.275C923.625 3.49706 811.571 74.539 643.53 181.087C551.066 239.721 441.677 309.058 286.633 350.005C136.993 389.561 58.3622 344.522 19.7355 267.881L22.3409 266.891ZM28.4992 264.552C68.9806 332.361 146.1 369.694 285.323 332.92C440.005 292.051 549.203 222.846 641.52 164.298C810.517 57.1764 923.195 -14.2833 1154.23 187.737C1244.5 266.652 1324.51 301.533 1393.75 308.771C1404.16 309.846 1414.33 310.316 1424.24 310.228L1425.19 312.727C1414.88 312.877 1404.32 312.405 1393.5 311.276C1323.79 304.003 1243.28 268.921 1152.6 189.621C922.968 -11.1561 810.914 59.8858 642.873 166.434C550.409 225.068 441.02 294.405 285.976 335.352C144.583 372.679 66.5843 334.535 25.8411 265.562L28.4992 264.552ZM35.6312 261.843C77.9323 321.916 153.885 352.768 284.672 318.204C439.328 277.345 548.543 208.104 640.869 149.583C809.867 42.4607 922.545 -28.999 1153.58 173.021C1243.85 251.937 1323.86 286.817 1393.1 294.055C1401.79 294.97 1410.31 295.437 1418.68 295.51L1419.64 298.036C1410.89 297.988 1401.97 297.519 1392.85 296.56C1323.14 289.287 1242.63 254.205 1151.95 174.906C922.317 -25.8719 810.263 45.1701 642.212 151.692C549.748 210.326 440.359 279.663 285.315 320.61C152.368 355.752 75.4834 324.11 32.8679 262.893L35.6312 261.843ZM43.8423 258.725C87.5972 311.049 161.916 335.778 284.005 303.525C438.688 262.655 547.876 193.424 640.202 134.903C809.2 27.7812 921.878 -43.6785 1152.92 158.341C1243.18 237.257 1323.19 272.137 1392.43 279.376C1399.42 280.094 1406.28 280.558 1413.03 280.733L1413.99 283.259C1406.85 283.082 1399.57 282.626 1392.17 281.854C1322.45 274.555 1241.95 239.499 1151.27 160.2C921.64 -40.5776 809.586 30.4643 641.545 137.012C549.081 195.646 439.692 264.983 284.648 305.93C160.4 338.762 85.1057 313.29 41 259.804L43.8423 258.725ZM53.3428 255.116C98.1233 299.675 170.221 318.714 283.365 288.835C438.02 247.976 547.245 178.761 639.561 120.214C808.559 13.0918 921.237 -58.3679 1152.28 143.652C1242.54 222.568 1322.55 257.448 1391.79 264.687C1397.06 265.244 1402.26 265.617 1407.41 265.858L1408.38 268.41C1402.84 268.167 1397.24 267.766 1391.54 267.191C1321.83 259.918 1241.32 224.836 1150.64 145.537C921.009 -55.2408 808.956 15.8012 640.915 122.349C548.45 180.983 439.061 250.32 284.017 291.267C168.715 321.725 95.5628 301.972 50.3953 256.236L53.3428 255.116ZM64.3698 250.928C109.688 287.786 178.941 301.553 282.697 274.156C437.38 233.286 546.568 164.055 638.894 105.534C807.892 -1.5877 920.57 -73.0474 1151.61 128.973C1241.87 207.888 1321.88 242.769 1391.12 250.007C1394.69 250.367 1398.22 250.685 1401.7 250.897L1402.68 253.476C1398.77 253.245 1394.84 252.9 1390.86 252.486C1321.16 245.213 1240.65 210.13 1149.97 130.831C920.332 -69.9465 808.278 1.09542 640.227 107.617C547.773 166.277 438.411 235.604 283.34 276.561C177.372 304.558 106.996 290.133 61.2381 252.117L64.3698 250.928Z" fill="#25287C"/>
</svg>
