<svg width="183" height="173" viewBox="0 0 183 173" fill="none" xmlns="http://www.w3.org/2000/svg">
<path d="M91.6642 86.3712C129.681 119.728 152.256 156.165 142.087 167.756C131.917 179.346 92.8535 161.701 54.8363 128.345C16.8191 94.988 -5.75578 58.5509 4.41397 46.9603C14.5837 35.3696 53.647 53.0145 91.6642 86.3712ZM91.6642 86.3712C129.681 119.728 168.745 137.373 178.915 125.782C189.084 114.191 166.509 77.7544 128.492 44.3977C90.4749 11.041 51.4117 -6.60386 41.2419 4.9868C31.0722 16.5775 53.647 53.0145 91.6642 86.3712ZM110.078 65.3844C148.095 98.7411 170.67 135.178 160.501 146.769C150.331 158.359 111.268 140.715 73.2503 107.358C35.233 74.0012 12.6582 37.5642 22.8279 25.9735C32.9977 14.3829 72.061 32.0277 110.078 65.3844Z" stroke="#D4D5EB" stroke-width="2.5" stroke-miterlimit="10"/>
</svg>
