<svg width="111" height="93" viewBox="0 0 111 93" fill="none" xmlns="http://www.w3.org/2000/svg">
<path d="M1.20531 89.3105C0.474889 89.6011 0.118755 90.4298 0.409846 91.1615C0.700937 91.8931 1.52902 92.2506 2.25945 91.96C2.98986 91.6694 3.34601 90.8407 3.05492 90.1091C2.76383 89.3775 1.93573 89.0199 1.20531 89.3105Z" fill="#B8B9DA"/>
<path d="M8.87367 88.1171C8.14325 88.4077 7.78711 89.2364 8.0782 89.968C8.36929 90.6997 9.19739 91.0572 9.9278 90.7666C10.6582 90.476 11.0144 89.6473 10.7233 88.9157C10.4322 88.184 9.60409 87.8265 8.87367 88.1171Z" fill="#B8B9DA"/>
<path d="M16.5698 86.9934C15.8393 87.284 15.4832 88.1127 15.7743 88.8443C16.0654 89.5759 16.8935 89.9335 17.6239 89.6429C18.3543 89.3523 18.7105 88.5236 18.4194 87.7919C18.1283 87.0603 17.3002 86.7028 16.5698 86.9934Z" fill="#B8B9DA"/>
<path d="M24.3355 85.8419C23.6051 86.1326 23.2489 86.9612 23.54 87.6929C23.8311 88.4245 24.6592 88.7821 25.3896 88.4914C26.12 88.2008 26.4762 87.3722 26.1851 86.6405C25.894 85.9089 25.0659 85.5513 24.3355 85.8419Z" fill="#B8B9DA"/>
<path d="M32.0038 84.6485C31.2734 84.9391 30.9173 85.7678 31.2084 86.4994C31.4994 87.2311 32.3275 87.5886 33.058 87.298C33.7884 87.0074 34.1445 86.1787 33.8534 85.4471C33.5623 84.7154 32.7342 84.3579 32.0038 84.6485Z" fill="#B8B9DA"/>
<path d="M39.6999 83.5248C38.9695 83.8154 38.6134 84.6441 38.9045 85.3757C39.1955 86.1074 40.0236 86.4649 40.7541 86.1743C41.4845 85.8837 41.8406 85.055 41.5495 84.3233C41.2584 83.5917 40.4303 83.2342 39.6999 83.5248Z" fill="#B8B9DA"/>
<path d="M47.396 82.4011C46.6656 82.6917 46.3095 83.5204 46.6005 84.252C46.8916 84.9836 47.7197 85.3412 48.4502 85.0506C49.1806 84.76 49.5367 83.9313 49.2456 83.1996C48.9545 82.468 48.1264 82.1104 47.396 82.4011Z" fill="#B8B9DA"/>
<path d="M55.1617 81.2496C54.4313 81.5402 54.0752 82.3689 54.3663 83.1006C54.6573 83.8322 55.4854 84.1897 56.2159 83.8991C56.9463 83.6085 57.3024 82.7798 57.0113 82.0482C56.7202 81.3166 55.8921 80.959 55.1617 81.2496Z" fill="#B8B9DA"/>
<path d="M62.8301 80.0562C62.0997 80.3468 61.7435 81.1755 62.0346 81.9071C62.3257 82.6388 63.1538 82.9963 63.8842 82.7057C64.6146 82.4151 64.9708 81.5864 64.6797 80.8548C64.3886 80.1231 63.5605 79.7656 62.8301 80.0562Z" fill="#B8B9DA"/>
<path d="M70.5262 78.9325C69.7958 79.2231 69.4396 80.0518 69.7307 80.7834C70.0218 81.515 70.8499 81.8726 71.5803 81.582C72.3107 81.2914 72.6669 80.4627 72.3758 79.731C72.0847 78.9994 71.2566 78.6419 70.5262 78.9325Z" fill="#B8B9DA"/>
<path d="M78.2223 77.8087C77.4919 78.0993 77.1357 78.928 77.4268 79.6597C77.7179 80.3913 78.546 80.7488 79.2764 80.4582C80.0068 80.1676 80.363 79.3389 80.0719 78.6073C79.7808 77.8757 78.9527 77.5181 78.2223 77.8087Z" fill="#B8B9DA"/>
<path d="M85.9602 76.5876C85.2298 76.8782 84.8737 77.7069 85.1648 78.4385C85.4559 79.1702 86.284 79.5277 87.0144 79.2371C87.7448 78.9465 88.1009 78.1178 87.8098 77.3862C87.5188 76.6545 86.6907 76.297 85.9602 76.5876Z" fill="#B8B9DA"/>
<path d="M93.6563 75.4639C92.9259 75.7545 92.5698 76.5832 92.8609 77.3148C93.152 78.0465 93.9801 78.404 94.7105 78.1134C95.4409 77.8228 95.797 76.9941 95.5059 76.2624C95.2148 75.5308 94.3868 75.1733 93.6563 75.4639Z" fill="#B8B9DA"/>
<path d="M101.352 74.3402C100.622 74.6308 100.266 75.4594 100.557 76.1911C100.848 76.9227 101.676 77.2803 102.407 76.9897C103.137 76.699 103.493 75.8704 103.202 75.1387C102.911 74.4071 102.083 74.0495 101.352 74.3402Z" fill="#B8B9DA"/>
<path d="M109.021 73.1467C108.29 73.4373 107.934 74.266 108.225 74.9976C108.516 75.7293 109.345 76.0868 110.075 75.7962C110.805 75.5056 111.161 74.6769 110.87 73.9453C110.579 73.2136 109.751 72.8561 109.021 73.1467Z" fill="#B8B9DA"/>
<path d="M4.16322 82.965C3.4328 83.2556 3.07666 84.0843 3.36775 84.816C3.65884 85.5476 4.48693 85.9051 5.21735 85.6145C5.94777 85.3239 6.30392 84.4952 6.01283 83.7636C5.72174 83.0319 4.89364 82.6744 4.16322 82.965Z" fill="#B8B9DA"/>
<path d="M11.9012 81.7439C11.1708 82.0345 10.8146 82.8632 11.1057 83.5948C11.3968 84.3265 12.2249 84.684 12.9553 84.3934C13.6857 84.1028 14.0419 83.2741 13.7508 82.5424C13.4597 81.8108 12.6316 81.4533 11.9012 81.7439Z" fill="#B8B9DA"/>
<path d="M19.5973 80.6202C18.8669 80.9108 18.5107 81.7395 18.8018 82.4711C19.0929 83.2027 19.921 83.5603 20.6514 83.2697C21.3818 82.9791 21.738 82.1504 21.4469 81.4187C21.1558 80.6871 20.3277 80.3296 19.5973 80.6202Z" fill="#B8B9DA"/>
<path d="M27.2934 79.4964C26.563 79.787 26.2068 80.6157 26.4979 81.3474C26.789 82.079 27.6171 82.4365 28.3475 82.1459C29.0779 81.8553 29.4341 81.0266 29.143 80.295C28.8519 79.5634 28.0238 79.2058 27.2934 79.4964Z" fill="#B8B9DA"/>
<path d="M34.9617 78.303C34.2313 78.5936 33.8752 79.4223 34.1663 80.1539C34.4574 80.8856 35.2855 81.2431 36.0159 80.9525C36.7463 80.6619 37.1024 79.8332 36.8113 79.1016C36.5202 78.3699 35.6921 78.0124 34.9617 78.303Z" fill="#B8B9DA"/>
<path d="M42.7274 77.1516C41.997 77.4422 41.6409 78.2709 41.932 79.0025C42.2231 79.7341 43.0512 80.0917 43.7816 79.8011C44.512 79.5105 44.8681 78.6818 44.577 77.9501C44.286 77.2185 43.4579 76.861 42.7274 77.1516Z" fill="#B8B9DA"/>
<path d="M50.4235 76.0278C49.6931 76.3185 49.337 77.1471 49.6281 77.8788C49.9192 78.6104 50.7473 78.968 51.4777 78.6774C52.2081 78.3867 52.5642 77.5581 52.2731 76.8264C51.982 76.0948 51.154 75.7372 50.4235 76.0278Z" fill="#B8B9DA"/>
<path d="M58.0919 74.8344C57.3615 75.125 57.0053 75.9537 57.2964 76.6853C57.5875 77.417 58.4156 77.7745 59.146 77.4839C59.8764 77.1933 60.2326 76.3646 59.9415 75.633C59.6504 74.9013 58.8223 74.5438 58.0919 74.8344Z" fill="#B8B9DA"/>
<path d="M65.788 73.7107C65.0576 74.0013 64.7014 74.83 64.9925 75.5616C65.2836 76.2933 66.1117 76.6508 66.8421 76.3602C67.5725 76.0696 67.9287 75.2409 67.6376 74.5092C67.3465 73.7776 66.5184 73.4201 65.788 73.7107Z" fill="#B8B9DA"/>
<path d="M73.4841 72.587C72.7537 72.8776 72.3975 73.7063 72.6886 74.4379C72.9797 75.1695 73.8078 75.5271 74.5382 75.2365C75.2686 74.9458 75.6248 74.1172 75.3337 73.3855C75.0426 72.6539 74.2145 72.2963 73.4841 72.587Z" fill="#B8B9DA"/>
<path d="M81.2221 71.3658C80.4916 71.6564 80.1355 72.4851 80.4266 73.2167C80.7177 73.9484 81.5458 74.3059 82.2762 74.0153C83.0066 73.7247 83.3627 72.896 83.0717 72.1644C82.7806 71.4327 81.9525 71.0752 81.2221 71.3658Z" fill="#B8B9DA"/>
<path d="M88.9181 70.2421C88.1877 70.5327 87.8316 71.3614 88.1227 72.093C88.4138 72.8247 89.2419 73.1822 89.9723 72.8916C90.7027 72.601 91.0588 71.7723 90.7678 71.0407C90.4767 70.309 89.6486 69.9515 88.9181 70.2421Z" fill="#B8B9DA"/>
<path d="M96.6142 69.1184C95.8838 69.409 95.5277 70.2377 95.8188 70.9693C96.1099 71.7009 96.938 72.0585 97.6684 71.7679C98.3988 71.4773 98.7549 70.6486 98.4638 69.9169C98.1728 69.1853 97.3447 68.8278 96.6142 69.1184Z" fill="#B8B9DA"/>
<path d="M104.31 67.9946C103.58 68.2852 103.224 69.1139 103.515 69.8456C103.806 70.5772 104.634 70.9347 105.364 70.6441C106.095 70.3535 106.451 69.5248 106.16 68.7932C105.869 68.0616 105.041 67.704 104.31 67.9946Z" fill="#B8B9DA"/>
<path d="M7.19074 76.5918C6.46033 76.8824 6.10417 77.7111 6.39526 78.4428C6.68635 79.1744 7.51446 79.5319 8.24487 79.2413C8.97529 78.9507 9.33143 78.122 9.04034 77.3904C8.74925 76.6587 7.92116 76.3012 7.19074 76.5918Z" fill="#B8B9DA"/>
<path d="M14.8591 75.3984C14.1287 75.689 13.7725 76.5177 14.0636 77.2493C14.3547 77.981 15.1828 78.3385 15.9132 78.0479C16.6436 77.7573 16.9998 76.9286 16.7087 76.1969C16.4176 75.4653 15.5895 75.1078 14.8591 75.3984Z" fill="#B8B9DA"/>
<path d="M22.5552 74.2746C21.8248 74.5653 21.4686 75.3939 21.7597 76.1256C22.0508 76.8572 22.8789 77.2148 23.6093 76.9242C24.3397 76.6335 24.6959 75.8049 24.4048 75.0732C24.1137 74.3416 23.2856 73.984 22.5552 74.2746Z" fill="#B8B9DA"/>
<path d="M30.2513 73.1509C29.5209 73.4415 29.1647 74.2702 29.4558 75.0019C29.7469 75.7335 30.575 76.091 31.3054 75.8004C32.0358 75.5098 32.392 74.6811 32.1009 73.9495C31.8098 73.2178 30.9817 72.8603 30.2513 73.1509Z" fill="#B8B9DA"/>
<path d="M37.9893 71.9298C37.2588 72.2204 36.9027 73.0491 37.1938 73.7807C37.4849 74.5124 38.313 74.8699 39.0434 74.5793C39.7738 74.2887 40.1299 73.46 39.8389 72.7283C39.5478 71.9967 38.7197 71.6392 37.9893 71.9298Z" fill="#B8B9DA"/>
<path d="M45.6853 70.8061C44.9549 71.0967 44.5988 71.9254 44.8899 72.657C45.181 73.3886 46.0091 73.7462 46.7395 73.4556C47.4699 73.165 47.826 72.3363 47.5349 71.6046C47.2439 70.873 46.4158 70.5155 45.6853 70.8061Z" fill="#B8B9DA"/>
<path d="M53.3814 69.6823C52.651 69.9729 52.2949 70.8016 52.586 71.5333C52.8771 72.2649 53.7052 72.6224 54.4356 72.3318C55.166 72.0412 55.5221 71.2125 55.231 70.4809C54.94 69.7493 54.1119 69.3917 53.3814 69.6823Z" fill="#B8B9DA"/>
<path d="M61.0498 68.4889C60.3194 68.7795 59.9632 69.6082 60.2543 70.3398C60.5454 71.0715 61.3735 71.429 62.1039 71.1384C62.8344 70.8478 63.1905 70.0191 62.8994 69.2875C62.6083 68.5558 61.7802 68.1983 61.0498 68.4889Z" fill="#B8B9DA"/>
<path d="M68.8155 67.3375C68.0851 67.6281 67.7289 68.4568 68.02 69.1884C68.3111 69.92 69.1392 70.2776 69.8696 69.987C70.6001 69.6964 70.9562 68.8677 70.6651 68.136C70.374 67.4044 69.5459 67.0469 68.8155 67.3375Z" fill="#B8B9DA"/>
<path d="M76.5116 66.2137C75.7812 66.5044 75.425 67.333 75.7161 68.0647C76.0072 68.7963 76.8353 69.1539 77.5657 68.8633C78.2962 68.5726 78.6523 67.744 78.3612 67.0123C78.0701 66.2807 77.242 65.9231 76.5116 66.2137Z" fill="#B8B9DA"/>
<path d="M84.18 65.0203C83.4495 65.3109 83.0934 66.1396 83.3845 66.8712C83.6756 67.6029 84.5037 67.9604 85.2341 67.6698C85.9645 67.3792 86.3207 66.5505 86.0296 65.8189C85.7385 65.0872 84.9104 64.7297 84.18 65.0203Z" fill="#B8B9DA"/>
<path d="M91.8761 63.8966C91.1456 64.1872 90.7895 65.0159 91.0806 65.7475C91.3717 66.4792 92.1998 66.8367 92.9302 66.5461C93.6606 66.2555 94.0168 65.4268 93.7257 64.6951C93.4346 63.9635 92.6065 63.606 91.8761 63.8966Z" fill="#B8B9DA"/>
<path d="M99.6418 62.7452C98.9113 63.0358 98.5552 63.8645 98.8463 64.5961C99.1374 65.3277 99.9655 65.6853 100.696 65.3947C101.426 65.1041 101.782 64.2754 101.491 63.5437C101.2 62.8121 100.372 62.4546 99.6418 62.7452Z" fill="#B8B9DA"/>
<path d="M10.1486 70.2463C9.41823 70.5369 9.06208 71.3656 9.35317 72.0972C9.64426 72.8289 10.4724 73.1864 11.2028 72.8958C11.9332 72.6052 12.2893 71.7765 11.9983 71.0449C11.7072 70.3132 10.8791 69.9557 10.1486 70.2463Z" fill="#B8B9DA"/>
<path d="M17.817 69.0529C17.0866 69.3435 16.7304 70.1722 17.0215 70.9038C17.3126 71.6354 18.1407 71.993 18.8711 71.7024C19.6015 71.4118 19.9577 70.5831 19.6666 69.8514C19.3755 69.1198 18.5474 68.7623 17.817 69.0529Z" fill="#B8B9DA"/>
<path d="M25.5827 67.9014C24.8523 68.192 24.4961 69.0207 24.7872 69.7524C25.0783 70.484 25.9064 70.8416 26.6368 70.5509C27.3673 70.2603 27.7234 69.4317 27.4323 68.7C27.1412 67.9684 26.3131 67.6108 25.5827 67.9014Z" fill="#B8B9DA"/>
<path d="M33.2788 66.7777C32.5484 67.0683 32.1922 67.897 32.4833 68.6287C32.7744 69.3603 33.6025 69.7178 34.3329 69.4272C35.0634 69.1366 35.4195 68.3079 35.1284 67.5763C34.8373 66.8446 34.0092 66.4871 33.2788 66.7777Z" fill="#B8B9DA"/>
<path d="M40.9472 65.5843C40.2167 65.8749 39.8606 66.7036 40.1517 67.4352C40.4428 68.1669 41.2709 68.5244 42.0013 68.2338C42.7317 67.9432 43.0879 67.1145 42.7968 66.3828C42.5057 65.6512 41.6776 65.2937 40.9472 65.5843Z" fill="#B8B9DA"/>
<path d="M48.6433 64.4606C47.9128 64.7512 47.5567 65.5798 47.8478 66.3115C48.1389 67.0431 48.967 67.4007 49.6974 67.1101C50.4278 66.8194 50.784 65.9908 50.4929 65.2591C50.2018 64.5275 49.3737 64.1699 48.6433 64.4606Z" fill="#B8B9DA"/>
<path d="M56.409 63.3091C55.6785 63.5997 55.3224 64.4284 55.6135 65.1601C55.9046 65.8917 56.7327 66.2492 57.4631 65.9586C58.1935 65.668 58.5497 64.8393 58.2586 64.1077C57.9675 63.3761 57.1394 63.0185 56.409 63.3091Z" fill="#B8B9DA"/>
<path d="M64.0773 62.1157C63.3469 62.4063 62.9908 63.235 63.2818 63.9666C63.5729 64.6983 64.401 65.0558 65.1315 64.7652C65.8619 64.4746 66.218 63.6459 65.9269 62.9143C65.6358 62.1826 64.8077 61.8251 64.0773 62.1157Z" fill="#B8B9DA"/>
<path d="M71.7734 60.992C71.043 61.2826 70.6869 62.1113 70.9779 62.8429C71.269 63.5745 72.0971 63.9321 72.8275 63.6415C73.558 63.3509 73.9141 62.5222 73.623 61.7905C73.3319 61.0589 72.5038 60.7014 71.7734 60.992Z" fill="#B8B9DA"/>
<path d="M79.4695 59.8682C78.7391 60.1588 78.3829 60.9875 78.674 61.7192C78.9651 62.4508 79.7932 62.8083 80.5236 62.5177C81.2541 62.2271 81.6102 61.3984 81.3191 60.6668C81.028 59.9352 80.1999 59.5776 79.4695 59.8682Z" fill="#B8B9DA"/>
<path d="M87.1379 58.6748C86.4075 58.9654 86.0513 59.7941 86.3424 60.5257C86.6335 61.2574 87.4616 61.6149 88.192 61.3243C88.9224 61.0337 89.2786 60.205 88.9875 59.4734C88.6964 58.7417 87.8683 58.3842 87.1379 58.6748Z" fill="#B8B9DA"/>
<path d="M94.9036 57.5234C94.1732 57.814 93.817 58.6427 94.1081 59.3743C94.3992 60.1059 95.2273 60.4635 95.9577 60.1729C96.6881 59.8823 97.0443 59.0536 96.7532 58.3219C96.4621 57.5903 95.634 57.2328 94.9036 57.5234Z" fill="#B8B9DA"/>
<path d="M13.1484 63.8034C12.418 64.094 12.0619 64.9227 12.353 65.6543C12.644 66.386 13.4721 66.7435 14.2026 66.4529C14.933 66.1623 15.2891 65.3336 14.998 64.6019C14.7069 63.8703 13.8788 63.5128 13.1484 63.8034Z" fill="#B8B9DA"/>
<path d="M20.8445 62.6797C20.1141 62.9703 19.758 63.799 20.049 64.5306C20.3401 65.2622 21.1682 65.6198 21.8987 65.3292C22.6291 65.0386 22.9852 64.2099 22.6941 63.4782C22.403 62.7466 21.5749 62.3891 20.8445 62.6797Z" fill="#B8B9DA"/>
<path d="M28.5406 61.5559C27.8102 61.8465 27.4541 62.6752 27.7451 63.4069C28.0362 64.1385 28.8643 64.496 29.5947 64.2054C30.3252 63.9148 30.6813 63.0861 30.3902 62.3545C30.0991 61.6229 29.271 61.2653 28.5406 61.5559Z" fill="#B8B9DA"/>
<path d="M36.2367 60.4322C35.5063 60.7228 35.1501 61.5515 35.4412 62.2831C35.7323 63.0148 36.5604 63.3723 37.2908 63.0817C38.0213 62.7911 38.3774 61.9624 38.0863 61.2308C37.7952 60.4991 36.9671 60.1416 36.2367 60.4322Z" fill="#B8B9DA"/>
<path d="M43.9051 59.2388C43.1746 59.5294 42.8185 60.3581 43.1096 61.0897C43.4007 61.8213 44.2288 62.1789 44.9592 61.8883C45.6896 61.5977 46.0458 60.769 45.7547 60.0373C45.4636 59.3057 44.6355 58.9482 43.9051 59.2388Z" fill="#B8B9DA"/>
<path d="M51.6708 58.0873C50.9404 58.3779 50.5842 59.2066 50.8753 59.9383C51.1664 60.6699 51.9945 61.0275 52.7249 60.7368C53.4553 60.4462 53.8115 59.6176 53.5204 58.8859C53.2293 58.1543 52.4012 57.7967 51.6708 58.0873Z" fill="#B8B9DA"/>
<path d="M59.3669 56.9636C58.6365 57.2542 58.2803 58.0829 58.5714 58.8146C58.8625 59.5462 59.6906 59.9037 60.421 59.6131C61.1514 59.3225 61.5076 58.4938 61.2165 57.7622C60.9254 57.0305 60.0973 56.673 59.3669 56.9636Z" fill="#B8B9DA"/>
<path d="M67.0352 55.7702C66.3048 56.0608 65.9487 56.8895 66.2398 57.6211C66.5308 58.3528 67.3589 58.7103 68.0894 58.4197C68.8198 58.1291 69.1759 57.3004 68.8848 56.5687C68.5937 55.8371 67.7656 55.4796 67.0352 55.7702Z" fill="#B8B9DA"/>
<path d="M74.7313 54.6465C74.0009 54.9371 73.6448 55.7657 73.9359 56.4974C74.2269 57.229 75.055 57.5866 75.7855 57.296C76.5159 57.0053 76.872 56.1767 76.5809 55.445C76.2898 54.7134 75.4617 54.3558 74.7313 54.6465Z" fill="#B8B9DA"/>
<path d="M82.497 53.495C81.7666 53.7856 81.4105 54.6143 81.7016 55.346C81.9926 56.0776 82.8207 56.4351 83.5512 56.1445C84.2816 55.8539 84.6377 55.0252 84.3466 54.2936C84.0555 53.562 83.2274 53.2044 82.497 53.495Z" fill="#B8B9DA"/>
<path d="M90.1654 52.3016C89.435 52.5922 89.0788 53.4209 89.3699 54.1525C89.661 54.8842 90.4891 55.2417 91.2195 54.9511C91.9499 54.6605 92.3061 53.8318 92.015 53.1002C91.7239 52.3685 90.8958 52.011 90.1654 52.3016Z" fill="#B8B9DA"/>
<path d="M16.1063 57.4579C15.3759 57.7485 15.0198 58.5772 15.3109 59.3088C15.6019 60.0405 16.43 60.398 17.1605 60.1074C17.8909 59.8168 18.247 58.9881 17.9559 58.2564C17.6648 57.5248 16.8367 57.1673 16.1063 57.4579Z" fill="#B8B9DA"/>
<path d="M23.8024 56.3341C23.072 56.6248 22.7159 57.4534 23.007 58.1851C23.298 58.9167 24.1261 59.2743 24.8566 58.9837C25.587 58.693 25.9431 57.8644 25.652 57.1327C25.3609 56.4011 24.5328 56.0435 23.8024 56.3341Z" fill="#B8B9DA"/>
<path d="M31.4985 55.2104C30.7681 55.501 30.412 56.3297 30.7031 57.0614C30.9941 57.793 31.8222 58.1505 32.5527 57.8599C33.2831 57.5693 33.6392 56.7406 33.3481 56.009C33.057 55.2773 32.2289 54.9198 31.4985 55.2104Z" fill="#B8B9DA"/>
<path d="M39.2365 53.9893C38.5061 54.2799 38.1499 55.1086 38.441 55.8402C38.7321 56.5719 39.5602 56.9294 40.2906 56.6388C41.021 56.3482 41.3772 55.5195 41.0861 54.7878C40.795 54.0562 39.9669 53.6987 39.2365 53.9893Z" fill="#B8B9DA"/>
<path d="M46.9326 52.8656C46.2022 53.1562 45.846 53.9849 46.1371 54.7165C46.4282 55.4481 47.2563 55.8057 47.9867 55.5151C48.7171 55.2245 49.0733 54.3958 48.7822 53.6641C48.4911 52.9325 47.663 52.575 46.9326 52.8656Z" fill="#B8B9DA"/>
<path d="M54.6287 51.7418C53.8983 52.0324 53.5421 52.8611 53.8332 53.5928C54.1243 54.3244 54.9524 54.6819 55.6828 54.3913C56.4132 54.1007 56.7694 53.272 56.4783 52.5404C56.1872 51.8088 55.3591 51.4512 54.6287 51.7418Z" fill="#B8B9DA"/>
<path d="M62.3248 50.6181C61.5944 50.9087 61.2382 51.7374 61.5293 52.469C61.8204 53.2007 62.6485 53.5582 63.3789 53.2676C64.1093 52.977 64.4655 52.1483 64.1744 51.4167C63.8833 50.685 63.0552 50.3275 62.3248 50.6181Z" fill="#B8B9DA"/>
<path d="M70.0627 49.397C69.3323 49.6876 68.9762 50.5163 69.2673 51.2479C69.5584 51.9795 70.3865 52.3371 71.1169 52.0465C71.8473 51.7559 72.2034 50.9272 71.9123 50.1955C71.6213 49.4639 70.7932 49.1064 70.0627 49.397Z" fill="#B8B9DA"/>
<path d="M77.7588 48.2732C77.0284 48.5639 76.6723 49.3925 76.9634 50.1242C77.2545 50.8558 78.0826 51.2134 78.813 50.9227C79.5434 50.6321 79.8995 49.8035 79.6084 49.0718C79.3174 48.3402 78.4893 47.9826 77.7588 48.2732Z" fill="#B8B9DA"/>
<path d="M85.4549 47.1495C84.7245 47.4401 84.3684 48.2688 84.6595 49.0005C84.9506 49.7321 85.7787 50.0896 86.5091 49.799C87.2395 49.5084 87.5956 48.6797 87.3045 47.9481C87.0134 47.2164 86.1854 46.8589 85.4549 47.1495Z" fill="#B8B9DA"/>
<path d="M19.0642 51.1124C18.3338 51.403 17.9777 52.2317 18.2688 52.9633C18.5599 53.6949 19.388 54.0525 20.1184 53.7619C20.8488 53.4713 21.2049 52.6426 20.9138 51.9109C20.6227 51.1793 19.7946 50.8218 19.0642 51.1124Z" fill="#B8B9DA"/>
<path d="M26.7603 49.9886C26.0299 50.2792 25.6738 51.1079 25.9649 51.8396C26.256 52.5712 27.084 52.9287 27.8145 52.6381C28.5449 52.3475 28.901 51.5188 28.6099 50.7872C28.3189 50.0556 27.4907 49.698 26.7603 49.9886Z" fill="#B8B9DA"/>
<path d="M34.526 48.8372C33.7956 49.1278 33.4395 49.9565 33.7306 50.6882C34.0217 51.4198 34.8498 51.7773 35.5802 51.4867C36.3106 51.1961 36.6667 50.3674 36.3756 49.6358C36.0846 48.9041 35.2565 48.5466 34.526 48.8372Z" fill="#B8B9DA"/>
<path d="M42.1944 47.6438C41.464 47.9344 41.1078 48.7631 41.3989 49.4947C41.69 50.2264 42.5181 50.5839 43.2485 50.2933C43.9789 50.0027 44.3351 49.174 44.044 48.4423C43.7529 47.7107 42.9248 47.3532 42.1944 47.6438Z" fill="#B8B9DA"/>
<path d="M49.8905 46.52C49.1601 46.8107 48.8039 47.6393 49.095 48.371C49.3861 49.1026 50.2142 49.4602 50.9446 49.1696C51.675 48.8789 52.0312 48.0503 51.7401 47.3186C51.449 46.587 50.6209 46.2294 49.8905 46.52Z" fill="#B8B9DA"/>
<path d="M57.5866 45.3963C56.8562 45.6869 56.5 46.5156 56.7911 47.2473C57.0822 47.9789 57.9103 48.3364 58.6407 48.0458C59.3711 47.7552 59.7273 46.9265 59.4362 46.1949C59.1451 45.4633 58.317 45.1057 57.5866 45.3963Z" fill="#B8B9DA"/>
<path d="M65.3246 44.1752C64.5941 44.4658 64.238 45.2945 64.5291 46.0261C64.8202 46.7578 65.6483 47.1153 66.3787 46.8247C67.1091 46.5341 67.4652 45.7054 67.1742 44.9737C66.8831 44.2421 66.055 43.8846 65.3246 44.1752Z" fill="#B8B9DA"/>
<path d="M73.0206 43.0515C72.2902 43.3421 71.9341 44.1708 72.2252 44.9024C72.5163 45.634 73.3444 45.9916 74.0748 45.701C74.8052 45.4104 75.1613 44.5817 74.8703 43.85C74.5792 43.1184 73.7511 42.7609 73.0206 43.0515Z" fill="#B8B9DA"/>
<path d="M80.7167 41.9277C79.9863 42.2183 79.6302 43.047 79.9213 43.7787C80.2124 44.5103 81.0405 44.8678 81.7709 44.5772C82.5013 44.2866 82.8574 43.4579 82.5663 42.7263C82.2753 41.9947 81.4472 41.6371 80.7167 41.9277Z" fill="#B8B9DA"/>
<path d="M22.0917 44.7392C21.3613 45.0298 21.0052 45.8585 21.2963 46.5901C21.5874 47.3217 22.4155 47.6793 23.1459 47.3887C23.8763 47.0981 24.2324 46.2694 23.9414 45.5377C23.6503 44.8061 22.8222 44.4485 22.0917 44.7392Z" fill="#B8B9DA"/>
<path d="M29.7878 43.6154C29.0574 43.906 28.7013 44.7347 28.9924 45.4664C29.2835 46.198 30.1116 46.5555 30.842 46.2649C31.5724 45.9743 31.9285 45.1456 31.6375 44.414C31.3464 43.6824 30.5183 43.3248 29.7878 43.6154Z" fill="#B8B9DA"/>
<path d="M37.4839 42.4917C36.7535 42.7823 36.3974 43.611 36.6885 44.3426C36.9796 45.0743 37.8077 45.4318 38.5381 45.1412C39.2685 44.8506 39.6246 44.0219 39.3335 43.2903C39.0425 42.5586 38.2144 42.2011 37.4839 42.4917Z" fill="#B8B9DA"/>
<path d="M45.1523 41.2983C44.4219 41.5889 44.0657 42.4176 44.3568 43.1492C44.6479 43.8808 45.476 44.2384 46.2064 43.9478C46.9368 43.6572 47.293 42.8285 47.0019 42.0968C46.7108 41.3652 45.8827 41.0077 45.1523 41.2983Z" fill="#B8B9DA"/>
<path d="M52.918 40.1468C52.1876 40.4374 51.8314 41.2661 52.1225 41.9978C52.4136 42.7294 53.2417 43.087 53.9721 42.7963C54.7026 42.5057 55.0587 41.677 54.7676 40.9454C54.4765 40.2138 53.6484 39.8562 52.918 40.1468Z" fill="#B8B9DA"/>
<path d="M60.6141 39.0231C59.8837 39.3137 59.5275 40.1424 59.8186 40.8741C60.1097 41.6057 60.9378 41.9632 61.6682 41.6726C62.3987 41.382 62.7548 40.5533 62.4637 39.8217C62.1726 39.09 61.3445 38.7325 60.6141 39.0231Z" fill="#B8B9DA"/>
<path d="M68.2825 37.8297C67.552 38.1203 67.1959 38.949 67.487 39.6806C67.7781 40.4123 68.6062 40.7698 69.3366 40.4792C70.067 40.1886 70.4232 39.3599 70.1321 38.6282C69.841 37.8966 69.0129 37.5391 68.2825 37.8297Z" fill="#B8B9DA"/>
<path d="M75.9786 36.706C75.2481 36.9966 74.892 37.8252 75.1831 38.5569C75.4742 39.2885 76.3023 39.6461 77.0327 39.3555C77.7631 39.0648 78.1193 38.2362 77.8282 37.5045C77.5371 36.7729 76.709 36.4153 75.9786 36.706Z" fill="#B8B9DA"/>
<path d="M25.0497 38.3937C24.3192 38.6843 23.9631 39.5129 24.2542 40.2446C24.5453 40.9762 25.3734 41.3338 26.1038 41.0431C26.8342 40.7525 27.1904 39.9239 26.8993 39.1922C26.6082 38.4606 25.7801 38.103 25.0497 38.3937Z" fill="#B8B9DA"/>
<path d="M32.7458 37.2699C32.0153 37.5605 31.6592 38.3892 31.9503 39.1209C32.2414 39.8525 33.0695 40.21 33.7999 39.9194C34.5303 39.6288 34.8865 38.8001 34.5954 38.0685C34.3043 37.3368 33.4762 36.9793 32.7458 37.2699Z" fill="#B8B9DA"/>
<path d="M40.4419 36.1462C39.7114 36.4368 39.3553 37.2655 39.6464 37.9971C39.9375 38.7288 40.7656 39.0863 41.496 38.7957C42.2264 38.5051 42.5825 37.6764 42.2915 36.9448C42.0004 36.2131 41.1723 35.8556 40.4419 36.1462Z" fill="#B8B9DA"/>
<path d="M48.1798 34.9251C47.4494 35.2157 47.0933 36.0444 47.3843 36.776C47.6754 37.5076 48.5035 37.8652 49.2339 37.5746C49.9644 37.284 50.3205 36.4553 50.0294 35.7236C49.7383 34.992 48.9102 34.6345 48.1798 34.9251Z" fill="#B8B9DA"/>
<path d="M55.8759 33.8013C55.1455 34.0919 54.7893 34.9206 55.0804 35.6523C55.3715 36.3839 56.1996 36.7414 56.93 36.4508C57.6605 36.1602 58.0166 35.3315 57.7255 34.5999C57.4344 33.8683 56.6063 33.5107 55.8759 33.8013Z" fill="#B8B9DA"/>
<path d="M63.572 32.6776C62.8416 32.9682 62.4854 33.7969 62.7765 34.5285C63.0676 35.2602 63.8957 35.6177 64.6261 35.3271C65.3566 35.0365 65.7127 34.2078 65.4216 33.4762C65.1305 32.7445 64.3024 32.387 63.572 32.6776Z" fill="#B8B9DA"/>
<path d="M71.2404 31.4842C70.51 31.7748 70.1538 32.6035 70.4449 33.3351C70.736 34.0667 71.5641 34.4243 72.2945 34.1337C73.0249 33.8431 73.3811 33.0144 73.09 32.2827C72.7989 31.5511 71.9708 31.1936 71.2404 31.4842Z" fill="#B8B9DA"/>
<path d="M28.0076 32.0481C27.2772 32.3387 26.921 33.1674 27.2121 33.8991C27.5032 34.6307 28.3313 34.9882 29.0617 34.6976C29.7921 34.407 30.1483 33.5783 29.8572 32.8467C29.5661 32.1151 28.738 31.7575 28.0076 32.0481Z" fill="#B8B9DA"/>
<path d="M35.7733 30.8967C35.0429 31.1873 34.6867 32.016 34.9778 32.7477C35.2689 33.4793 36.097 33.8368 36.8274 33.5462C37.5578 33.2556 37.914 32.4269 37.6229 31.6953C37.3318 30.9636 36.5037 30.6061 35.7733 30.8967Z" fill="#B8B9DA"/>
<path d="M43.4694 29.773C42.739 30.0636 42.3828 30.8923 42.6739 31.6239C42.965 32.3556 43.7931 32.7131 44.5235 32.4225C45.2539 32.1319 45.6101 31.3032 45.319 30.5716C45.0279 29.8399 44.1998 29.4824 43.4694 29.773Z" fill="#B8B9DA"/>
<path d="M51.1377 28.5796C50.4073 28.8702 50.0512 29.6988 50.3423 30.4305C50.6333 31.1621 51.4614 31.5197 52.1919 31.2291C52.9223 30.9384 53.2784 30.1098 52.9873 29.3781C52.6962 28.6465 51.8681 28.2889 51.1377 28.5796Z" fill="#B8B9DA"/>
<path d="M58.8338 27.4558C58.1034 27.7464 57.7473 28.5751 58.0384 29.3068C58.3294 30.0384 59.1575 30.3959 59.888 30.1053C60.6184 29.8147 60.9745 28.986 60.6834 28.2544C60.3923 27.5228 59.5642 27.1652 58.8338 27.4558Z" fill="#B8B9DA"/>
<path d="M66.5995 26.3044C65.8691 26.595 65.513 27.4237 65.8041 28.1553C66.0951 28.887 66.9232 29.2445 67.6537 28.9539C68.3841 28.6633 68.7402 27.8346 68.4491 27.103C68.158 26.3713 67.3299 26.0138 66.5995 26.3044Z" fill="#B8B9DA"/>
<path d="M31.0351 25.6749C30.3047 25.9655 29.9485 26.7942 30.2396 27.5259C30.5307 28.2575 31.3588 28.615 32.0892 28.3244C32.8196 28.0338 33.1758 27.2051 32.8847 26.4735C32.5936 25.7419 31.7655 25.3843 31.0351 25.6749Z" fill="#B8B9DA"/>
<path d="M38.7312 24.5512C38.0008 24.8418 37.6446 25.6705 37.9357 26.4021C38.2268 27.1338 39.0549 27.4913 39.7853 27.2007C40.5157 26.9101 40.8719 26.0814 40.5808 25.3498C40.2897 24.6181 39.4616 24.2606 38.7312 24.5512Z" fill="#B8B9DA"/>
<path d="M46.3995 23.3578C45.6691 23.6484 45.313 24.4771 45.6041 25.2087C45.8952 25.9403 46.7233 26.2979 47.4537 26.0073C48.1841 25.7167 48.5402 24.888 48.2491 24.1563C47.9581 23.4247 47.13 23.0672 46.3995 23.3578Z" fill="#B8B9DA"/>
<path d="M54.0956 22.234C53.3652 22.5246 53.0091 23.3533 53.3002 24.085C53.5913 24.8166 54.4194 25.1741 55.1498 24.8835C55.8802 24.5929 56.2363 23.7642 55.9452 23.0326C55.6541 22.301 54.826 21.9434 54.0956 22.234Z" fill="#B8B9DA"/>
<path d="M61.8613 21.0826C61.1309 21.3732 60.7748 22.2019 61.0659 22.9336C61.357 23.6652 62.1851 24.0227 62.9155 23.7321C63.6459 23.4415 64.002 22.6128 63.7109 21.8812C63.4199 21.1495 62.5918 20.792 61.8613 21.0826Z" fill="#B8B9DA"/>
<path d="M33.993 19.3294C33.2626 19.62 32.9064 20.4487 33.1975 21.1804C33.4886 21.912 34.3167 22.2695 35.0471 21.9789C35.7775 21.6883 36.1337 20.8596 35.8426 20.128C35.5515 19.3963 34.7234 19.0388 33.993 19.3294Z" fill="#B8B9DA"/>
<path d="M41.6891 18.2057C40.9587 18.4963 40.6025 19.325 40.8936 20.0566C41.1847 20.7883 42.0128 21.1458 42.7432 20.8552C43.4736 20.5646 43.8298 19.7359 43.5387 19.0043C43.2476 18.2726 42.4195 17.9151 41.6891 18.2057Z" fill="#B8B9DA"/>
<path d="M49.4271 16.9846C48.6966 17.2752 48.3405 18.1039 48.6316 18.8355C48.9227 19.5671 49.7508 19.9247 50.4812 19.6341C51.2116 19.3435 51.5677 18.5148 51.2767 17.7831C50.9856 17.0515 50.1575 16.694 49.4271 16.9846Z" fill="#B8B9DA"/>
<path d="M57.1231 15.8608C56.3927 16.1514 56.0366 16.9801 56.3277 17.7118C56.6188 18.4434 57.4469 18.8009 58.1773 18.5103C58.9077 18.2197 59.2638 17.391 58.9728 16.6594C58.6817 15.9278 57.8536 15.5702 57.1231 15.8608Z" fill="#B8B9DA"/>
<path d="M37.0205 12.9562C36.2901 13.2468 35.9339 14.0755 36.225 14.8072C36.5161 15.5388 37.3442 15.8963 38.0746 15.6057C38.8051 15.3151 39.1612 14.4864 38.8701 13.7548C38.579 13.0231 37.7509 12.6656 37.0205 12.9562Z" fill="#B8B9DA"/>
<path d="M44.7166 11.8325C43.9862 12.1231 43.63 12.9518 43.9211 13.6834C44.2122 14.4151 45.0403 14.7726 45.7707 14.482C46.5012 14.1914 46.8573 13.3627 46.5662 12.6311C46.2751 11.8994 45.447 11.5419 44.7166 11.8325Z" fill="#B8B9DA"/>
<path d="M52.385 10.639C51.6545 10.9297 51.2984 11.7583 51.5895 12.49C51.8806 13.2216 52.7087 13.5792 53.4391 13.2885C54.1695 12.9979 54.5257 12.1693 54.2346 11.4376C53.9435 10.706 53.1154 10.3484 52.385 10.639Z" fill="#B8B9DA"/>
<path d="M39.9784 6.61071C39.248 6.90131 38.8919 7.73 39.1829 8.46164C39.474 9.19328 40.3021 9.55082 41.0325 9.26021C41.763 8.96961 42.1191 8.14091 41.828 7.40927C41.5369 6.67763 40.7088 6.3201 39.9784 6.61071Z" fill="#B8B9DA"/>
<path d="M47.6745 5.48698C46.9441 5.77759 46.5879 6.60628 46.879 7.33792C47.1701 8.06956 47.9982 8.42709 48.7286 8.13649C49.4591 7.84588 49.8152 7.01719 49.5241 6.28555C49.233 5.55391 48.4049 5.19638 47.6745 5.48698Z" fill="#B8B9DA"/>
<path d="M42.9363 0.265197C42.2059 0.555802 41.8498 1.3845 42.1409 2.11613C42.4319 2.84778 43.26 3.2053 43.9905 2.9147C44.7209 2.6241 45.077 1.7954 44.7859 1.06376C44.4948 0.332128 43.6667 -0.0254068 42.9363 0.265197Z" fill="#B8B9DA"/>
</svg>
