<svg width="545" height="145" viewBox="0 0 545 145" fill="none" xmlns="http://www.w3.org/2000/svg">
<path d="M-167.514 78.1648C-167.514 78.1648 84.6003 -73.9964 135.749 47.8312C203.074 208.291 332.131 121.363 399.316 100.086C486.334 72.5763 543.909 190.295 543.909 190.295M-171.214 81.1623C-171.214 81.1623 77.9989 -64.8791 128.024 54.3931C193.277 209.829 321.824 128.198 396.364 104.726C489.538 75.3388 533.952 197.303 533.952 197.303M-174.913 84.1598C-174.913 84.1598 71.4005 -55.6693 120.299 60.955C183.307 211.372 311.343 135.039 393.408 109.272C492.742 78.1012 523.82 204.225 523.82 204.225M-178.616 87.0648C-178.616 87.0648 64.7991 -46.552 112.57 67.4244C173.507 212.817 301.032 141.782 390.626 113.813C495.944 80.7711 513.861 211.141 513.861 211.141M-182.488 90.0682C-182.488 90.0682 58.025 -37.4288 104.672 73.9922C163.537 214.361 290.551 148.622 387.497 118.366C499.145 83.441 503.901 218.056 503.901 218.056M-186.187 93.0657C-186.187 93.0657 51.4267 -28.219 96.9471 80.5541C153.743 215.991 280.243 155.458 384.545 123.006C502.525 86.2902 493.772 225.071 493.772 225.071M-189.887 96.0632C-189.887 96.0632 44.6558 -19.0033 89.225 87.2085C143.774 217.535 269.766 162.391 381.593 127.645C505.73 89.0526 483.816 232.079 483.816 232.079M-193.586 99.0607C-193.586 99.0607 38.0543 -9.88601 81.4997 93.7704C133.976 219.073 259.458 169.226 378.64 132.284C508.934 91.815 473.859 239.088 473.859 239.088M-197.286 102.058C-197.286 102.058 31.456 -0.676209 73.7745 100.332C124.007 220.616 249.15 176.061 375.86 136.918C512.314 94.6641 463.903 246.096 463.903 246.096M-200.989 104.963C-200.989 104.963 24.8545 8.4411 66.0461 106.802C114.207 222.062 238.839 182.804 372.902 141.372C515.685 97.2356 453.94 252.919 453.94 252.919M-204.688 107.961C-204.688 107.961 18.253 17.5584 58.3208 113.364C104.409 223.599 228.359 189.645 369.949 146.012C518.717 100.004 443.808 259.841 443.808 259.841M-208.388 110.958C-208.388 110.958 11.6547 26.7682 50.4229 119.931C94.4397 225.143 217.878 196.486 366.821 150.565C521.921 102.766 433.679 266.855 433.679 266.855M-212.087 113.956C-212.087 113.956 5.05636 35.978 42.6977 126.493C84.47 226.687 207.57 203.321 363.869 155.204C525.125 105.529 423.722 273.864 423.722 273.864M-215.786 116.953C-215.786 116.953 -1.71772 45.1012 34.9724 133.055C74.6729 228.224 197.262 210.156 361.086 159.745C528.499 108.193 413.935 280.774 413.935 280.774M-219.486 119.951C-219.486 119.951 -8.31605 54.311 27.2471 139.617C64.8758 229.762 186.954 216.991 358.133 164.384C531.879 111.042 403.979 287.782 403.979 287.782M-223.189 122.856C-223.189 122.856 -14.9207 63.3358 19.5187 146.086C54.903 231.213 176.471 223.74 355.175 168.839C535.084 113.804 393.847 294.704 393.847 294.704M-227.061 125.859C-227.061 125.859 -21.6916 72.5515 11.624 152.747C44.9365 232.849 165.993 230.673 352.053 173.577C538.285 116.474 383.887 301.62 383.887 301.62" stroke="#333799" stroke-miterlimit="10"/>
</svg>
