<svg width="87" height="74" viewBox="0 0 87 74" fill="none" xmlns="http://www.w3.org/2000/svg">
<path d="M84.1892 15.6499C84.1892 15.3697 84.2716 15.0958 84.4261 14.8629C84.5805 14.6299 84.8 14.4484 85.0568 14.3412C85.3136 14.2339 85.5962 14.2059 85.8688 14.2605C86.1414 14.3152 86.3918 14.4501 86.5884 14.6482C86.7849 14.8463 86.9188 15.0987 86.973 15.3735C87.0272 15.6483 86.9994 15.9331 86.893 16.192C86.7866 16.4508 86.6065 16.6721 86.3754 16.8277C86.1443 16.9834 85.8726 17.0664 85.5946 17.0664C85.2224 17.0647 84.866 16.9148 84.6028 16.6496C84.3396 16.3843 84.191 16.025 84.1892 15.6499Z" fill="#191D88"/>
<path d="M72.119 15.6499C72.119 15.3694 72.2016 15.0953 72.3563 14.8622C72.511 14.6291 72.7309 14.4475 72.9881 14.3405C73.2453 14.2335 73.5282 14.2059 73.801 14.2611C74.0738 14.3163 74.3242 14.4519 74.5205 14.6506C74.7168 14.8494 74.8501 15.1025 74.9036 15.3777C74.957 15.6529 74.9282 15.938 74.8208 16.1967C74.7134 16.4554 74.5322 16.6762 74.3002 16.831C74.0682 16.9858 73.7959 17.0678 73.5176 17.0664C73.1461 17.0646 72.7903 16.9146 72.5282 16.6491C72.2661 16.3837 72.1189 16.0244 72.119 15.6499Z" fill="#191D88"/>
<path d="M60.042 15.6499C60.042 15.3697 60.1244 15.0958 60.2788 14.8629C60.4332 14.6299 60.6527 14.4484 60.9095 14.3412C61.1663 14.2339 61.4489 14.2059 61.7215 14.2605C61.9942 14.3152 62.2446 14.4501 62.4411 14.6482C62.6377 14.8463 62.7715 15.0987 62.8258 15.3735C62.88 15.6483 62.8522 15.9331 62.7458 16.192C62.6394 16.4508 62.4593 16.672 62.2282 16.8277C61.997 16.9834 61.7253 17.0664 61.4474 17.0664C61.2628 17.0664 61.0801 17.0298 60.9095 16.9586C60.739 16.8874 60.5841 16.7831 60.4536 16.6515C60.3231 16.52 60.2196 16.3638 60.1489 16.192C60.0783 16.0201 60.042 15.8359 60.042 15.6499Z" fill="#191D88"/>
<path d="M47.965 15.6499C47.965 15.3686 48.0482 15.0936 48.2038 14.8601C48.3595 14.6266 48.5806 14.4451 48.839 14.3388C49.0973 14.2324 49.3813 14.206 49.6546 14.2629C49.9279 14.3197 50.1783 14.4574 50.3737 14.6582C50.5691 14.859 50.7008 15.114 50.752 15.3905C50.8031 15.6671 50.7714 15.9527 50.6609 16.211C50.5504 16.4693 50.3661 16.6886 50.1315 16.841C49.8968 16.9933 49.6225 17.0718 49.3435 17.0664C48.976 17.0576 48.6264 16.9047 48.369 16.6402C48.1116 16.3757 47.9666 16.0204 47.965 15.6499Z" fill="#191D88"/>
<path d="M36.2242 15.6499C36.2242 15.3697 36.3067 15.0958 36.4611 14.8629C36.6155 14.6299 36.835 14.4484 37.0918 14.3412C37.3486 14.2339 37.6312 14.2059 37.9038 14.2605C38.1764 14.3152 38.4268 14.4501 38.6234 14.6482C38.8199 14.8463 38.9538 15.0987 39.008 15.3735C39.0622 15.6483 39.0344 15.9331 38.928 16.192C38.8217 16.4508 38.6415 16.672 38.4104 16.8277C38.1793 16.9834 37.9076 17.0664 37.6296 17.0664C37.2569 17.0664 36.8994 16.9172 36.6359 16.6515C36.3723 16.3859 36.2242 16.0256 36.2242 15.6499Z" fill="#191D88"/>
<path d="M24.1472 15.6499C24.1472 15.3697 24.2297 15.0958 24.3841 14.8629C24.5385 14.6299 24.758 14.4484 25.0148 14.3412C25.2716 14.2339 25.5542 14.2059 25.8268 14.2605C26.0994 14.3152 26.3499 14.4501 26.5464 14.6482C26.743 14.8463 26.8768 15.0987 26.931 15.3735C26.9853 15.6483 26.9574 15.9331 26.8511 16.192C26.7447 16.4508 26.5646 16.672 26.3334 16.8277C26.1023 16.9834 25.8306 17.0664 25.5526 17.0664C25.1805 17.0647 24.824 16.9148 24.5608 16.6496C24.2976 16.3843 24.149 16.025 24.1472 15.6499Z" fill="#191D88"/>
<path d="M12.0703 15.6499C12.0703 15.3697 12.1527 15.0958 12.3071 14.8629C12.4615 14.6299 12.681 14.4484 12.9378 14.3412C13.1946 14.2339 13.4772 14.2059 13.7498 14.2605C14.0225 14.3152 14.2729 14.4501 14.4694 14.6482C14.666 14.8463 14.7998 15.0987 14.854 15.3735C14.9083 15.6483 14.8804 15.9331 14.7741 16.192C14.6677 16.4508 14.4876 16.672 14.2565 16.8277C14.0253 16.9834 13.7536 17.0664 13.4757 17.0664C13.1035 17.0647 12.747 16.9148 12.4838 16.6496C12.2207 16.3843 12.072 16.025 12.0703 15.6499Z" fill="#191D88"/>
<path d="M-6.84078e-07 15.6499C-6.71832e-07 15.3697 0.0824348 15.0958 0.236862 14.8629C0.391288 14.6299 0.610774 14.4484 0.867576 14.3412C1.12438 14.2339 1.40696 14.2059 1.67958 14.2605C1.9522 14.3152 2.20261 14.4501 2.39916 14.6482C2.59571 14.8463 2.72956 15.0987 2.78379 15.3735C2.83802 15.6483 2.81019 15.9331 2.70382 16.192C2.59745 16.4508 2.41731 16.672 2.18619 16.8277C1.95508 16.9834 1.68336 17.0664 1.4054 17.0664C1.03267 17.0664 0.675198 16.9172 0.411636 16.6515C0.148073 16.3859 -7.005e-07 16.0256 -6.84078e-07 15.6499Z" fill="#191D88"/>
<path d="M84.1892 1.41656C84.1892 1.13639 84.2716 0.862511 84.4261 0.62956C84.5805 0.396608 84.8 0.215045 85.0568 0.107829C85.3136 0.00061369 85.5962 -0.0274388 85.8688 0.0272193C86.1414 0.0818774 86.3918 0.216791 86.5884 0.4149C86.7849 0.613009 86.9188 0.865415 86.973 1.1402C87.0272 1.41498 86.9994 1.69981 86.893 1.95865C86.7866 2.21749 86.6065 2.43872 86.3754 2.59438C86.1443 2.75003 85.8726 2.83311 85.5946 2.83311C85.2224 2.83133 84.866 2.68151 84.6028 2.41624C84.3396 2.15097 84.191 1.7917 84.1892 1.41656Z" fill="#191D88"/>
<path d="M72.119 1.41655C72.119 1.1361 72.2016 0.861955 72.3563 0.628859C72.511 0.395763 72.7309 0.214207 72.9881 0.107193C73.2453 0.000179293 73.5282 -0.0274746 73.801 0.0277351C74.0738 0.0829448 74.3242 0.218533 74.5205 0.417321C74.7168 0.616108 74.8501 0.869147 74.9036 1.14438C74.957 1.41961 74.9282 1.70464 74.8208 1.96336C74.7134 2.22208 74.5322 2.44284 74.3002 2.59768C74.0682 2.75251 73.7959 2.83445 73.5176 2.83311C73.1461 2.83132 72.7903 2.68128 72.5282 2.41582C72.2661 2.15036 72.1189 1.79108 72.119 1.41655Z" fill="#191D88"/>
<path d="M60.042 1.41655C60.042 1.13639 60.1244 0.86251 60.2788 0.629559C60.4333 0.396607 60.6527 0.215044 60.9095 0.107828C61.1663 0.000612635 61.4489 -0.0274399 61.7215 0.0272182C61.9942 0.0818763 62.2446 0.21679 62.4411 0.414899C62.6377 0.613008 62.7715 0.865414 62.8258 1.1402C62.88 1.41498 62.8522 1.6998 62.7458 1.95865C62.6394 2.21749 62.4593 2.43872 62.2282 2.59438C61.997 2.75003 61.7253 2.83311 61.4474 2.83311C61.2628 2.83311 61.0801 2.79647 60.9095 2.72528C60.739 2.65409 60.5841 2.54975 60.4536 2.41821C60.3231 2.28667 60.2196 2.13051 60.149 1.95865C60.0783 1.78678 60.042 1.60258 60.042 1.41655Z" fill="#191D88"/>
<path d="M47.965 1.41655C47.965 1.13524 48.0482 0.860316 48.2038 0.626813C48.3595 0.393311 48.5806 0.211807 48.839 0.105435C49.0973 -0.000937956 49.3813 -0.0273624 49.6546 0.0295293C49.9279 0.0864209 50.1783 0.224052 50.3737 0.424882C50.5691 0.625712 50.7008 0.880645 50.752 1.15719C50.8031 1.43374 50.7714 1.71937 50.6609 1.97769C50.5504 2.23602 50.3661 2.45532 50.1315 2.60767C49.8968 2.76001 49.6225 2.83849 49.3435 2.83311C48.976 2.82429 48.6264 2.67137 48.369 2.40686C48.1116 2.14234 47.9666 1.78707 47.965 1.41655Z" fill="#191D88"/>
<path d="M36.2242 1.41655C36.2242 1.13639 36.3067 0.862509 36.4611 0.629558C36.6155 0.396606 36.835 0.215043 37.0918 0.107827C37.3486 0.000611594 37.6312 -0.0274409 37.9038 0.0272172C38.1764 0.0818753 38.4268 0.216789 38.6234 0.414898C38.8199 0.613007 38.9538 0.865412 39.008 1.1402C39.0622 1.41498 39.0344 1.6998 38.928 1.95865C38.8217 2.21749 38.6415 2.43872 38.4104 2.59438C38.1793 2.75003 37.9076 2.83311 37.6296 2.83311C37.2569 2.83311 36.8994 2.68386 36.6359 2.41821C36.3723 2.15255 36.2242 1.79225 36.2242 1.41655Z" fill="#191D88"/>
<path d="M24.1472 1.41655C24.1472 1.13638 24.2297 0.862508 24.3841 0.629557C24.5385 0.396606 24.758 0.215042 25.0148 0.107827C25.2716 0.000611066 25.5542 -0.0274414 25.8268 0.0272167C26.0994 0.0818748 26.3499 0.216789 26.5464 0.414897C26.743 0.613006 26.8768 0.865412 26.931 1.1402C26.9853 1.41498 26.9574 1.6998 26.8511 1.95864C26.7447 2.21749 26.5646 2.43872 26.3334 2.59437C26.1023 2.75003 25.8306 2.83311 25.5526 2.83311C25.1805 2.83133 24.824 2.68151 24.5608 2.41624C24.2976 2.15097 24.149 1.7917 24.1472 1.41655Z" fill="#191D88"/>
<path d="M12.0703 1.41655C12.0703 1.13638 12.1527 0.862508 12.3071 0.629556C12.4615 0.396605 12.681 0.215042 12.9378 0.107826C13.1946 0.000610538 13.4772 -0.0274419 13.7498 0.0272161C14.0225 0.0818742 14.2729 0.216788 14.4694 0.414897C14.666 0.613006 14.7998 0.865411 14.854 1.1402C14.9083 1.41498 14.8804 1.6998 14.7741 1.95864C14.6677 2.21749 14.4876 2.43872 14.2565 2.59437C14.0253 2.75003 13.7536 2.83311 13.4757 2.83311C13.1035 2.83132 12.747 2.68151 12.4838 2.41624C12.2207 2.15097 12.072 1.7917 12.0703 1.41655Z" fill="#191D88"/>
<path d="M-6.19196e-08 1.41655C-4.96731e-08 1.13638 0.0824354 0.862507 0.236862 0.629556C0.391289 0.396605 0.610774 0.215041 0.867577 0.107826C1.12438 0.00061001 1.40696 -0.0274425 1.67958 0.0272156C1.9522 0.0818737 2.20261 0.216788 2.39916 0.414896C2.59571 0.613005 2.72956 0.865411 2.78379 1.1402C2.83802 1.41498 2.81019 1.6998 2.70382 1.95864C2.59745 2.21749 2.41731 2.43872 2.1862 2.59437C1.95508 2.75003 1.68336 2.83311 1.4054 2.83311C1.03267 2.83311 0.675199 2.68386 0.411636 2.41821C0.148074 2.15255 -7.83417e-08 1.79225 -6.19196e-08 1.41655Z" fill="#191D88"/>
<path d="M84.1892 44.7943C84.1892 44.5141 84.2716 44.2403 84.4261 44.0073C84.5805 43.7744 84.8 43.5928 85.0568 43.4856C85.3136 43.3784 85.5962 43.3503 85.8688 43.405C86.1414 43.4596 86.3918 43.5945 86.5884 43.7927C86.7849 43.9908 86.9188 44.2432 86.973 44.518C87.0272 44.7927 86.9994 45.0776 86.893 45.3364C86.7866 45.5952 86.6065 45.8165 86.3754 45.9721C86.1443 46.1278 85.8726 46.2109 85.5946 46.2109C85.2224 46.2091 84.866 46.0593 84.6028 45.794C84.3396 45.5287 84.191 45.1695 84.1892 44.7943Z" fill="#191D88"/>
<path d="M72.119 44.7943C72.119 44.5138 72.2016 44.2397 72.3563 44.0066C72.511 43.7735 72.7309 43.592 72.9881 43.4849C73.2453 43.3779 73.5282 43.3503 73.801 43.4055C74.0738 43.4607 74.3242 43.5963 74.5205 43.7951C74.7168 43.9939 74.8501 44.2469 74.9036 44.5221C74.957 44.7974 74.9282 45.0824 74.8208 45.3411C74.7134 45.5998 74.5322 45.8206 74.3002 45.9754C74.0682 46.1303 73.7959 46.2122 73.5176 46.2109C73.1461 46.2091 72.7903 46.059 72.5282 45.7936C72.2661 45.5281 72.1189 45.1688 72.119 44.7943Z" fill="#191D88"/>
<path d="M60.042 44.7943C60.042 44.5141 60.1244 44.2403 60.2788 44.0073C60.4332 43.7744 60.6527 43.5928 60.9095 43.4856C61.1663 43.3784 61.4489 43.3503 61.7215 43.405C61.9942 43.4596 62.2446 43.5945 62.4411 43.7926C62.6377 43.9908 62.7715 44.2432 62.8258 44.5179C62.88 44.7927 62.8521 45.0776 62.7458 45.3364C62.6394 45.5952 62.4593 45.8165 62.2282 45.9721C61.997 46.1278 61.7253 46.2109 61.4474 46.2109C61.2628 46.2109 61.0801 46.1742 60.9095 46.103C60.739 46.0318 60.5841 45.9275 60.4536 45.796C60.3231 45.6644 60.2196 45.5083 60.1489 45.3364C60.0783 45.1645 60.042 44.9803 60.042 44.7943Z" fill="#191D88"/>
<path d="M47.965 44.7943C47.965 44.513 48.0482 44.2381 48.2038 44.0046C48.3595 43.7711 48.5806 43.5896 48.839 43.4832C49.0973 43.3768 49.3813 43.3504 49.6546 43.4073C49.9279 43.4642 50.1783 43.6018 50.3737 43.8026C50.5691 44.0035 50.7008 44.2584 50.752 44.5349C50.8031 44.8115 50.7714 45.0971 50.6609 45.3554C50.5504 45.6138 50.3661 45.8331 50.1315 45.9854C49.8968 46.1378 49.6225 46.2162 49.3435 46.2109C48.976 46.202 48.6264 46.0491 48.369 45.7846C48.1116 45.5201 47.9666 45.1648 47.965 44.7943Z" fill="#191D88"/>
<path d="M36.2242 44.7943C36.2242 44.5141 36.3067 44.2403 36.4611 44.0073C36.6155 43.7744 36.835 43.5928 37.0918 43.4856C37.3486 43.3784 37.6312 43.3503 37.9038 43.405C38.1764 43.4596 38.4268 43.5945 38.6234 43.7926C38.8199 43.9908 38.9538 44.2432 39.008 44.5179C39.0622 44.7927 39.0344 45.0776 38.928 45.3364C38.8217 45.5952 38.6415 45.8165 38.4104 45.9721C38.1793 46.1278 37.9076 46.2109 37.6296 46.2109C37.2569 46.2109 36.8994 46.0616 36.6359 45.796C36.3723 45.5303 36.2242 45.17 36.2242 44.7943Z" fill="#191D88"/>
<path d="M24.1472 44.7943C24.1472 44.5141 24.2297 44.2403 24.3841 44.0073C24.5385 43.7744 24.758 43.5928 25.0148 43.4856C25.2716 43.3784 25.5542 43.3503 25.8268 43.405C26.0994 43.4596 26.3499 43.5945 26.5464 43.7926C26.743 43.9908 26.8768 44.2432 26.931 44.5179C26.9853 44.7927 26.9574 45.0776 26.8511 45.3364C26.7447 45.5952 26.5645 45.8165 26.3334 45.9721C26.1023 46.1278 25.8306 46.2109 25.5526 46.2109C25.1805 46.2091 24.824 46.0593 24.5608 45.794C24.2976 45.5287 24.149 45.1695 24.1472 44.7943Z" fill="#191D88"/>
<path d="M12.0703 44.7943C12.0703 44.5141 12.1527 44.2403 12.3071 44.0073C12.4615 43.7744 12.681 43.5928 12.9378 43.4856C13.1946 43.3784 13.4772 43.3503 13.7498 43.405C14.0225 43.4596 14.2729 43.5945 14.4694 43.7926C14.666 43.9908 14.7998 44.2432 14.854 44.5179C14.9083 44.7927 14.8804 45.0776 14.7741 45.3364C14.6677 45.5952 14.4876 45.8165 14.2565 45.9721C14.0253 46.1278 13.7536 46.2109 13.4757 46.2109C13.1035 46.2091 12.747 46.0593 12.4838 45.794C12.2207 45.5287 12.072 45.1695 12.0703 44.7943Z" fill="#191D88"/>
<path d="M-1.95802e-06 44.7943C-1.94577e-06 44.5141 0.0824335 44.2403 0.23686 44.0073C0.391287 43.7744 0.610772 43.5928 0.867575 43.4856C1.12438 43.3784 1.40696 43.3503 1.67958 43.405C1.9522 43.4596 2.20261 43.5945 2.39916 43.7926C2.59571 43.9908 2.72956 44.2432 2.78379 44.5179C2.83802 44.7927 2.81019 45.0776 2.70382 45.3364C2.59745 45.5952 2.41731 45.8165 2.18619 45.9721C1.95508 46.1278 1.68336 46.2109 1.4054 46.2109C1.03267 46.2109 0.675197 46.0616 0.411634 45.796C0.148072 45.5303 -1.97444e-06 45.17 -1.95802e-06 44.7943Z" fill="#191D88"/>
<path d="M84.1892 30.561C84.1892 30.2808 84.2716 30.0069 84.4261 29.774C84.5805 29.541 84.8 29.3595 85.0568 29.2523C85.3136 29.145 85.5962 29.117 85.8688 29.1716C86.1414 29.2263 86.3918 29.3612 86.5884 29.5593C86.7849 29.7574 86.9188 30.0098 86.973 30.2846C87.0272 30.5594 86.9994 30.8442 86.893 31.1031C86.7866 31.3619 86.6065 31.5832 86.3754 31.7388C86.1443 31.8945 85.8726 31.9775 85.5946 31.9775C85.2224 31.9758 84.866 31.8259 84.6028 31.5607C84.3396 31.2954 84.191 30.9361 84.1892 30.561Z" fill="#191D88"/>
<path d="M72.119 30.561C72.119 30.2805 72.2016 30.0064 72.3563 29.7733C72.511 29.5402 72.7309 29.3586 72.9881 29.2516C73.2453 29.1446 73.5282 29.117 73.801 29.1722C74.0738 29.2274 74.3242 29.363 74.5205 29.5617C74.7168 29.7605 74.8501 30.0136 74.9036 30.2888C74.957 30.564 74.9282 30.8491 74.8208 31.1078C74.7134 31.3665 74.5322 31.5873 74.3002 31.7421C74.0682 31.8969 73.7959 31.9789 73.5176 31.9775C73.1461 31.9757 72.7903 31.8257 72.5282 31.5603C72.2661 31.2948 72.1189 30.9355 72.119 30.561Z" fill="#191D88"/>
<path d="M60.042 30.561C60.042 30.2808 60.1244 30.0069 60.2788 29.774C60.4332 29.541 60.6527 29.3595 60.9095 29.2523C61.1663 29.145 61.4489 29.117 61.7215 29.1716C61.9942 29.2263 62.2446 29.3612 62.4411 29.5593C62.6377 29.7574 62.7715 30.0098 62.8258 30.2846C62.88 30.5594 62.8522 30.8442 62.7458 31.1031C62.6394 31.3619 62.4593 31.5832 62.2282 31.7388C61.997 31.8945 61.7253 31.9775 61.4474 31.9775C61.2628 31.9775 61.0801 31.9409 60.9095 31.8697C60.739 31.7985 60.5841 31.6942 60.4536 31.5626C60.3231 31.4311 60.2196 31.2749 60.1489 31.1031C60.0783 30.9312 60.042 30.747 60.042 30.561Z" fill="#191D88"/>
<path d="M47.965 30.561C47.965 30.2797 48.0482 30.0047 48.2038 29.7712C48.3595 29.5377 48.5806 29.3562 48.839 29.2499C49.0973 29.1435 49.3813 29.1171 49.6546 29.174C49.9279 29.2309 50.1783 29.3685 50.3737 29.5693C50.5691 29.7701 50.7008 30.0251 50.752 30.3016C50.8031 30.5782 50.7714 30.8638 50.6609 31.1221C50.5504 31.3804 50.3661 31.5998 50.1315 31.7521C49.8968 31.9044 49.6225 31.9829 49.3435 31.9775C48.976 31.9687 48.6264 31.8158 48.369 31.5513C48.1116 31.2868 47.9666 30.9315 47.965 30.561Z" fill="#191D88"/>
<path d="M36.2242 30.561C36.2242 30.2808 36.3067 30.0069 36.4611 29.774C36.6155 29.541 36.835 29.3595 37.0918 29.2523C37.3486 29.145 37.6312 29.117 37.9038 29.1716C38.1764 29.2263 38.4268 29.3612 38.6234 29.5593C38.8199 29.7574 38.9538 30.0098 39.008 30.2846C39.0622 30.5594 39.0344 30.8442 38.928 31.1031C38.8217 31.3619 38.6415 31.5832 38.4104 31.7388C38.1793 31.8945 37.9076 31.9775 37.6296 31.9775C37.2569 31.9775 36.8994 31.8283 36.6359 31.5626C36.3723 31.297 36.2242 30.9367 36.2242 30.561Z" fill="#191D88"/>
<path d="M24.1472 30.561C24.1472 30.2808 24.2297 30.0069 24.3841 29.774C24.5385 29.541 24.758 29.3595 25.0148 29.2523C25.2716 29.145 25.5542 29.117 25.8268 29.1716C26.0994 29.2263 26.3499 29.3612 26.5464 29.5593C26.743 29.7574 26.8768 30.0098 26.931 30.2846C26.9853 30.5594 26.9574 30.8442 26.8511 31.1031C26.7447 31.3619 26.5645 31.5832 26.3334 31.7388C26.1023 31.8945 25.8306 31.9775 25.5526 31.9775C25.1805 31.9758 24.824 31.8259 24.5608 31.5607C24.2976 31.2954 24.149 30.9361 24.1472 30.561Z" fill="#191D88"/>
<path d="M12.0703 30.561C12.0703 30.2808 12.1527 30.0069 12.3071 29.774C12.4615 29.541 12.681 29.3595 12.9378 29.2523C13.1946 29.145 13.4772 29.117 13.7498 29.1716C14.0225 29.2263 14.2729 29.3612 14.4694 29.5593C14.666 29.7574 14.7998 30.0098 14.854 30.2846C14.9083 30.5594 14.8804 30.8442 14.7741 31.1031C14.6677 31.3619 14.4876 31.5831 14.2565 31.7388C14.0253 31.8945 13.7536 31.9775 13.4757 31.9775C13.1035 31.9758 12.747 31.8259 12.4838 31.5607C12.2207 31.2954 12.072 30.9361 12.0703 30.561Z" fill="#191D88"/>
<path d="M-1.33586e-06 30.561C-1.32362e-06 30.2808 0.0824341 30.0069 0.236861 29.774C0.391288 29.541 0.610773 29.3595 0.867575 29.2523C1.12438 29.145 1.40696 29.117 1.67958 29.1716C1.9522 29.2263 2.20261 29.3612 2.39916 29.5593C2.59571 29.7574 2.72956 30.0098 2.78379 30.2846C2.83802 30.5594 2.81019 30.8442 2.70382 31.1031C2.59745 31.3619 2.41731 31.5831 2.18619 31.7388C1.95508 31.8945 1.68336 31.9775 1.4054 31.9775C1.03267 31.9775 0.675198 31.8283 0.411635 31.5626C0.148072 31.297 -1.35229e-06 30.9367 -1.33586e-06 30.561Z" fill="#191D88"/>
<path d="M84.1892 72.5832C84.1892 72.303 84.2716 72.0291 84.4261 71.7962C84.5805 71.5632 84.8 71.3817 85.0568 71.2745C85.3136 71.1672 85.5962 71.1392 85.8688 71.1938C86.1414 71.2485 86.3918 71.3834 86.5884 71.5815C86.7849 71.7796 86.9188 72.032 86.973 72.3068C87.0272 72.5816 86.9994 72.8664 86.893 73.1253C86.7866 73.3841 86.6065 73.6054 86.3754 73.761C86.1443 73.9167 85.8726 73.9997 85.5946 73.9997C85.2224 73.9979 84.866 73.8481 84.6028 73.5829C84.3396 73.3176 84.191 72.9583 84.1892 72.5832Z" fill="#191D88"/>
<path d="M72.119 72.5832C72.119 72.3027 72.2016 72.0286 72.3563 71.7955C72.511 71.5624 72.7309 71.3808 72.9881 71.2738C73.2453 71.1668 73.5282 71.1392 73.801 71.1944C74.0738 71.2496 74.3242 71.3852 74.5205 71.5839C74.7168 71.7827 74.8501 72.0358 74.9035 72.311C74.957 72.5862 74.9282 72.8713 74.8208 73.13C74.7134 73.3887 74.5322 73.6095 74.3002 73.7643C74.0682 73.9191 73.7959 74.0011 73.5176 73.9997C73.1461 73.9979 72.7903 73.8479 72.5282 73.5824C72.2661 73.317 72.1189 72.9577 72.119 72.5832Z" fill="#191D88"/>
<path d="M60.042 72.5832C60.042 72.303 60.1244 72.0291 60.2788 71.7962C60.4332 71.5632 60.6527 71.3817 60.9095 71.2745C61.1663 71.1672 61.4489 71.1392 61.7215 71.1938C61.9942 71.2485 62.2446 71.3834 62.4411 71.5815C62.6377 71.7796 62.7715 72.032 62.8258 72.3068C62.88 72.5816 62.8521 72.8664 62.7458 73.1253C62.6394 73.3841 62.4593 73.6054 62.2282 73.761C61.997 73.9167 61.7253 73.9997 61.4474 73.9997C61.2628 73.9997 61.0801 73.9631 60.9095 73.8919C60.739 73.8207 60.5841 73.7164 60.4536 73.5848C60.3231 73.4533 60.2196 73.2971 60.1489 73.1253C60.0783 72.9534 60.042 72.7692 60.042 72.5832Z" fill="#191D88"/>
<path d="M47.965 72.5832C47.965 72.3019 48.0482 72.0269 48.2038 71.7934C48.3595 71.5599 48.5806 71.3784 48.839 71.2721C49.0973 71.1657 49.3813 71.1393 49.6546 71.1962C49.9279 71.253 50.1783 71.3907 50.3737 71.5915C50.5691 71.7923 50.7008 72.0473 50.752 72.3238C50.8031 72.6004 50.7714 72.886 50.6609 73.1443C50.5504 73.4026 50.3661 73.6219 50.1315 73.7743C49.8968 73.9266 49.6225 74.0051 49.3435 73.9997C48.976 73.9909 48.6264 73.838 48.369 73.5735C48.1116 73.309 47.9666 72.9537 47.965 72.5832Z" fill="#191D88"/>
<path d="M36.2242 72.5832C36.2242 72.303 36.3067 72.0291 36.4611 71.7962C36.6155 71.5632 36.835 71.3817 37.0918 71.2745C37.3486 71.1672 37.6312 71.1392 37.9038 71.1938C38.1764 71.2485 38.4268 71.3834 38.6234 71.5815C38.8199 71.7796 38.9538 72.032 39.008 72.3068C39.0622 72.5816 39.0344 72.8664 38.928 73.1253C38.8217 73.3841 38.6415 73.6054 38.4104 73.761C38.1793 73.9167 37.9076 73.9997 37.6296 73.9997C37.2569 73.9997 36.8994 73.8505 36.6359 73.5848C36.3723 73.3192 36.2242 72.9589 36.2242 72.5832Z" fill="#191D88"/>
<path d="M24.1472 72.5832C24.1472 72.303 24.2297 72.0291 24.3841 71.7962C24.5385 71.5632 24.758 71.3817 25.0148 71.2745C25.2716 71.1672 25.5542 71.1392 25.8268 71.1938C26.0994 71.2485 26.3499 71.3834 26.5464 71.5815C26.743 71.7796 26.8768 72.032 26.931 72.3068C26.9853 72.5816 26.9574 72.8664 26.8511 73.1253C26.7447 73.3841 26.5645 73.6054 26.3334 73.761C26.1023 73.9167 25.8306 73.9997 25.5526 73.9997C25.1805 73.9979 24.824 73.8481 24.5608 73.5829C24.2976 73.3176 24.149 72.9583 24.1472 72.5832Z" fill="#191D88"/>
<path d="M12.0703 72.5832C12.0703 72.303 12.1527 72.0291 12.3071 71.7962C12.4615 71.5632 12.681 71.3817 12.9378 71.2745C13.1946 71.1672 13.4772 71.1392 13.7498 71.1938C14.0225 71.2485 14.2729 71.3834 14.4694 71.5815C14.666 71.7796 14.7998 72.032 14.854 72.3068C14.9083 72.5816 14.8804 72.8664 14.7741 73.1253C14.6677 73.3841 14.4876 73.6054 14.2565 73.761C14.0253 73.9167 13.7536 73.9997 13.4757 73.9997C13.1035 73.9979 12.747 73.8481 12.4838 73.5829C12.2207 73.3176 12.072 72.9583 12.0703 72.5832Z" fill="#191D88"/>
<path d="M-3.17271e-06 72.5832C-3.16047e-06 72.303 0.0824323 72.0291 0.236859 71.7962C0.391286 71.5632 0.610771 71.3817 0.867573 71.2745C1.12438 71.1672 1.40696 71.1392 1.67958 71.1938C1.9522 71.2485 2.20261 71.3834 2.39916 71.5815C2.59571 71.7796 2.72956 72.032 2.78379 72.3068C2.83801 72.5816 2.81019 72.8664 2.70382 73.1253C2.59745 73.3841 2.41731 73.6054 2.18619 73.761C1.95508 73.9167 1.68336 73.9997 1.4054 73.9997C1.03267 73.9997 0.675196 73.8505 0.411633 73.5848C0.14807 73.3192 -3.18913e-06 72.9589 -3.17271e-06 72.5832Z" fill="#191D88"/>
<path d="M84.1892 58.3499C84.1892 58.0697 84.2716 57.7958 84.4261 57.5629C84.5805 57.3299 84.8 57.1483 85.0568 57.0411C85.3136 56.9339 85.5962 56.9059 85.8688 56.9605C86.1414 57.0152 86.3918 57.1501 86.5884 57.3482C86.7849 57.5463 86.9188 57.7987 86.973 58.0735C87.0272 58.3483 86.9994 58.6331 86.893 58.8919C86.7866 59.1508 86.6065 59.372 86.3754 59.5277C86.1443 59.6833 85.8726 59.7664 85.5946 59.7664C85.2224 59.7646 84.866 59.6148 84.6028 59.3495C84.3396 59.0843 84.191 58.725 84.1892 58.3499Z" fill="#191D88"/>
<path d="M72.119 58.3499C72.119 58.0694 72.2016 57.7953 72.3563 57.5622C72.511 57.3291 72.7309 57.1475 72.9881 57.0405C73.2453 56.9335 73.5282 56.9058 73.801 56.961C74.0738 57.0162 74.3242 57.1518 74.5205 57.3506C74.7168 57.5494 74.8501 57.8024 74.9036 58.0777C74.957 58.3529 74.9282 58.6379 74.8208 58.8967C74.7134 59.1554 74.5322 59.3761 74.3002 59.531C74.0682 59.6858 73.7959 59.7678 73.5176 59.7664C73.1461 59.7646 72.7903 59.6146 72.5282 59.3491C72.2661 59.0837 72.1189 58.7244 72.119 58.3499Z" fill="#191D88"/>
<path d="M60.042 58.3499C60.042 58.0697 60.1244 57.7958 60.2788 57.5629C60.4332 57.3299 60.6527 57.1483 60.9095 57.0411C61.1663 56.9339 61.4489 56.9059 61.7215 56.9605C61.9942 57.0152 62.2446 57.1501 62.4411 57.3482C62.6377 57.5463 62.7715 57.7987 62.8258 58.0735C62.88 58.3483 62.8521 58.6331 62.7458 58.8919C62.6394 59.1508 62.4593 59.372 62.2282 59.5277C61.997 59.6833 61.7253 59.7664 61.4474 59.7664C61.2628 59.7664 61.0801 59.7298 60.9095 59.6586C60.739 59.5874 60.5841 59.4831 60.4536 59.3515C60.3231 59.22 60.2196 59.0638 60.1489 58.8919C60.0783 58.7201 60.042 58.5359 60.042 58.3499Z" fill="#191D88"/>
<path d="M47.965 58.3499C47.965 58.0685 48.0482 57.7936 48.2038 57.5601C48.3595 57.3266 48.5806 57.1451 48.839 57.0387C49.0973 56.9324 49.3813 56.9059 49.6546 56.9628C49.9279 57.0197 50.1783 57.1574 50.3737 57.3582C50.5691 57.559 50.7008 57.8139 50.752 58.0905C50.8031 58.367 50.7714 58.6527 50.6609 58.911C50.5504 59.1693 50.3661 59.3886 50.1315 59.541C49.8968 59.6933 49.6225 59.7718 49.3435 59.7664C48.976 59.7576 48.6264 59.6047 48.369 59.3402C48.1116 59.0756 47.9666 58.7204 47.965 58.3499Z" fill="#191D88"/>
<path d="M36.2242 58.3499C36.2242 58.0697 36.3067 57.7958 36.4611 57.5629C36.6155 57.3299 36.835 57.1483 37.0918 57.0411C37.3486 56.9339 37.6312 56.9059 37.9038 56.9605C38.1764 57.0152 38.4268 57.1501 38.6234 57.3482C38.8199 57.5463 38.9538 57.7987 39.008 58.0735C39.0622 58.3483 39.0344 58.6331 38.928 58.8919C38.8217 59.1508 38.6415 59.372 38.4104 59.5277C38.1793 59.6833 37.9076 59.7664 37.6296 59.7664C37.2569 59.7664 36.8994 59.6172 36.6359 59.3515C36.3723 59.0859 36.2242 58.7255 36.2242 58.3499Z" fill="#191D88"/>
<path d="M24.1472 58.3499C24.1472 58.0697 24.2297 57.7958 24.3841 57.5629C24.5385 57.3299 24.758 57.1483 25.0148 57.0411C25.2716 56.9339 25.5542 56.9059 25.8268 56.9605C26.0994 57.0152 26.3499 57.1501 26.5464 57.3482C26.743 57.5463 26.8768 57.7987 26.931 58.0735C26.9853 58.3483 26.9574 58.6331 26.8511 58.8919C26.7447 59.1508 26.5645 59.372 26.3334 59.5277C26.1023 59.6833 25.8306 59.7664 25.5526 59.7664C25.1805 59.7646 24.824 59.6148 24.5608 59.3495C24.2976 59.0843 24.149 58.725 24.1472 58.3499Z" fill="#191D88"/>
<path d="M12.0703 58.3499C12.0703 58.0697 12.1527 57.7958 12.3071 57.5629C12.4615 57.3299 12.681 57.1483 12.9378 57.0411C13.1946 56.9339 13.4772 56.9059 13.7498 56.9605C14.0225 57.0152 14.2729 57.1501 14.4694 57.3482C14.666 57.5463 14.7998 57.7987 14.854 58.0735C14.9083 58.3483 14.8804 58.6331 14.7741 58.8919C14.6677 59.1508 14.4876 59.372 14.2565 59.5277C14.0253 59.6833 13.7536 59.7664 13.4757 59.7664C13.1035 59.7646 12.747 59.6148 12.4838 59.3495C12.2207 59.0843 12.072 58.725 12.0703 58.3499Z" fill="#191D88"/>
<path d="M-2.55055e-06 58.3499C-2.53831e-06 58.0697 0.0824329 57.7958 0.23686 57.5629C0.391286 57.3299 0.610772 57.1483 0.867574 57.0411C1.12438 56.9339 1.40696 56.9059 1.67958 56.9605C1.9522 57.0152 2.20261 57.1501 2.39916 57.3482C2.59571 57.5463 2.72956 57.7987 2.78379 58.0735C2.83802 58.3483 2.81019 58.6331 2.70382 58.8919C2.59745 59.1508 2.41731 59.372 2.18619 59.5277C1.95508 59.6833 1.68336 59.7664 1.4054 59.7664C1.03267 59.7664 0.675196 59.6172 0.411634 59.3515C0.148071 59.0859 -2.56698e-06 58.7255 -2.55055e-06 58.3499Z" fill="#191D88"/>
</svg>
