<svg width="93" height="35" viewBox="0 0 93 35" fill="none" xmlns="http://www.w3.org/2000/svg">
<path d="M91.1106 5.41829L92.9711 3.03375C90.0832 0.998723 86.5918 -0.0652434 83.0261 0.00309805C79.4604 0.0714395 76.0148 1.26836 73.2115 3.41247C70.8603 5.24385 67.9378 6.24174 64.9255 6.24174C61.9131 6.24174 58.9906 5.24385 56.6394 3.41247C53.7422 1.2034 50.1671 0.00289037 46.4856 0.00289037C42.8041 0.00289037 39.2289 1.2034 36.3317 3.41247C33.9805 5.24385 31.058 6.24174 28.0457 6.24174C25.0333 6.24174 22.1108 5.24385 19.7596 3.41247C16.9563 1.26836 13.5107 0.0714395 9.94506 0.00309805C6.37937 -0.0652434 2.88797 0.998723 0 3.03375L1.86058 5.41829C4.12825 3.84781 6.83644 2.9911 9.62019 2.96361C12.6213 2.99173 15.5298 3.97731 17.899 5.76895C20.7894 7.9521 24.3357 9.15424 27.9952 9.19147C31.6547 9.15424 35.201 7.9521 38.0913 5.76895C40.4448 3.93646 43.3698 2.93801 46.3846 2.93801C49.3995 2.93801 52.3244 3.93646 54.6779 5.76895C57.5728 7.97689 61.1455 9.17683 64.8245 9.17683C68.5035 9.17683 72.0762 7.97689 74.9711 5.76895C77.243 3.98367 80.0592 2.9809 82.9794 2.91745C85.8995 2.85401 88.7589 3.73346 91.1106 5.41829Z" fill="#F7A400"/>
<path d="M1.86058 18.3229C4.20564 16.6661 7.04541 15.8044 9.94316 15.8703C12.8409 15.9362 15.6362 16.926 17.899 18.6876C20.7908 20.9025 24.3647 22.1069 28.0457 22.1069C31.7266 22.1069 35.3005 20.9025 38.1923 18.6876C40.5491 16.8622 43.4728 15.8684 46.4856 15.8684C49.4984 15.8684 52.4221 16.8622 54.7788 18.6876C57.6695 20.9048 61.2439 22.1107 64.9255 22.1107C68.6071 22.1107 72.1814 20.9048 75.0721 18.6876C77.335 16.926 80.1302 15.9362 83.028 15.8703C85.9257 15.8044 88.7655 16.6661 91.1106 18.3229L92.9711 15.9383C90.0841 13.9011 86.5923 12.8358 83.026 12.9041C79.4597 12.9725 76.0138 14.1708 73.2115 16.317C70.857 18.1412 67.9358 19.1345 64.9255 19.1345C61.9152 19.1345 58.9939 18.1412 56.6394 16.317C53.7443 14.1033 50.1684 12.8998 46.4856 12.8998C42.8028 12.8998 39.2268 14.1033 36.3317 16.317C33.9772 18.1412 31.056 19.1345 28.0457 19.1345C25.0354 19.1345 22.1141 18.1412 19.7596 16.317C16.9573 14.1708 13.5114 12.9725 9.94513 12.9041C6.37886 12.8358 2.88706 13.9011 0 15.9383L1.86058 18.3229Z" fill="#F7A400"/>
<path d="M54.8077 31.5921C57.7026 33.8001 61.2753 35 64.9543 35C68.6333 35 72.206 33.8001 75.101 31.5921C77.3612 29.8263 80.1559 28.8326 83.0543 28.7641C85.9527 28.6957 88.7937 29.5564 91.1394 31.2134L93 28.8289C90.112 26.7938 86.6206 25.7299 83.0549 25.7982C79.4893 25.8666 76.0437 27.0635 73.2404 29.2076C70.8892 31.039 67.9667 32.0369 64.9543 32.0369C61.942 32.0369 59.0195 31.039 56.6683 29.2076C53.7721 26.9962 50.1966 25.7942 46.5144 25.7942C42.8323 25.7942 39.2567 26.9962 36.3606 29.2076C34.0094 31.039 31.0869 32.0369 28.0745 32.0369C25.0622 32.0369 22.1397 31.039 19.7885 29.2076C16.9827 27.0568 13.5315 25.856 9.9596 25.7876C6.38773 25.7193 2.89061 26.7871 0 28.8289L1.86058 31.2134C4.20628 29.5564 7.04732 28.6957 9.94568 28.7641C12.8441 28.8326 15.6388 29.8263 17.899 31.5921C20.794 33.8001 24.3667 35 28.0457 35C31.7247 35 35.2974 33.8001 38.1923 31.5921C40.5447 29.7572 43.47 28.7572 46.4856 28.7572C49.5011 28.7572 52.4265 29.7572 54.7788 31.5921H54.8077Z" fill="#F7A400"/>
</svg>
